<svg 
  xmlns="http://www.w3.org/2000/svg" 
  viewBox="0 0 32 32" 
  fill="currentColor"
>
  <path d="M16 4.2872c-6.635 0-12.009 5.3741-12.009 12.009 0 5.314 3.4376 9.8024 8.2112 11.394 0.60046 0.10508 0.82563-0.25519 0.82563-0.57043 0-0.28522-0.01501-1.2309-0.01501-2.2367-3.0173 0.55542-3.7979-0.73556-4.0381-1.4111-0.1351-0.34526-0.72055-1.4111-1.2309-1.6963-0.42032-0.22517-1.0208-0.78059-0.01501-0.7956 0.94572-0.01501 1.6212 0.87066 1.8464 1.2309 1.0808 1.8164 2.8071 1.306 3.4977 0.99075 0.10508-0.78059 0.42032-1.306 0.76558-1.6062-2.672-0.30023-5.4641-1.336-5.4641-5.9295 0-1.306 0.46535-2.3868 1.2309-3.2274-0.12009-0.30023-0.54041-1.5312 0.12009-3.1824 0 0 1.0058-0.31524 3.3025 1.2309 0.96073-0.2702 1.9815-0.40531 3.0023-0.40531 1.0208 0 2.0415 0.1351 3.0023 0.40531 2.2967-1.5612 3.3025-1.2309 3.3025-1.2309 0.6605 1.6513 0.24018 2.8822 0.12009 3.1824 0.76558 0.84064 1.2309 1.9064 1.2309 3.2274 0 4.6085-2.8071 5.6293-5.4792 5.9295 0.43533 0.37528 0.81061 1.0958 0.81061 2.2217 0 1.6062-0.01501 2.8972-0.01501 3.3025 0 0.31524 0.22517 0.69052 0.82562 0.57043 4.7436-1.5912 8.1812-6.0946 8.1812-11.394 0-6.635-5.3741-12.009-12.009-12.009z"/>
</svg>
