<?xml version="1.0" encoding="UTF-8" standalone="no"?>
<!-- Created with Inkscape (http://www.inkscape.org/) -->

<svg
   width="105.83333mm"
   height="105.83333mm"
   viewBox="0 0 105.83333 105.83333"
   version="1.1"
   id="svg1"
   xml:space="preserve"
   inkscape:version="1.3.2 (091e20e, 2023-11-25)"
   sodipodi:docname="icon-any.svg"
   inkscape:export-filename="icon-any-192x192.png"
   inkscape:export-xdpi="46.080002"
   inkscape:export-ydpi="46.080002"
   xmlns:inkscape="http://www.inkscape.org/namespaces/inkscape"
   xmlns:sodipodi="http://sodipodi.sourceforge.net/DTD/sodipodi-0.dtd"
   xmlns:xlink="http://www.w3.org/1999/xlink"
   xmlns="http://www.w3.org/2000/svg"
   xmlns:svg="http://www.w3.org/2000/svg"><sodipodi:namedview
     id="namedview1"
     pagecolor="#ffffff"
     bordercolor="#000000"
     borderopacity="0.25"
     inkscape:showpageshadow="2"
     inkscape:pageopacity="0.0"
     inkscape:pagecheckerboard="0"
     inkscape:deskcolor="#d1d1d1"
     inkscape:document-units="mm"
     inkscape:zoom="0.36890115"
     inkscape:cx="-17.619896"
     inkscape:cy="393.05923"
     inkscape:window-width="1440"
     inkscape:window-height="847"
     inkscape:window-x="0"
     inkscape:window-y="25"
     inkscape:window-maximized="1"
     inkscape:current-layer="layer1" /><defs
     id="defs1"><linearGradient
       id="linearGradient3"
       inkscape:collect="always"><stop
         style="stop-color:#ffffff;stop-opacity:1;"
         offset="0"
         id="stop3" /><stop
         style="stop-color:#ffffff;stop-opacity:0;"
         offset="1"
         id="stop4" /></linearGradient><linearGradient
       id="linearGradient1"
       inkscape:collect="always"><stop
         style="stop-color:#6febf1;stop-opacity:1;"
         offset="0"
         id="stop1" /><stop
         style="stop-color:#1274b5;stop-opacity:1;"
         offset="1"
         id="stop2" /></linearGradient><style
       id="style1">
      .cls-1 {
        stroke-width: 0px;
      }
    </style><linearGradient
       inkscape:collect="always"
       xlink:href="#linearGradient1"
       id="linearGradient2"
       x1="400.00003"
       y1="7.5590551e-06"
       x2="0"
       y2="400"
       gradientUnits="userSpaceOnUse"
       gradientTransform="matrix(0.26458333,0,0,0.26458333,52.165961,95.583334)" /><style
       id="style1-4">
      .cls-1 {
        stroke-width: 0px;
      }
    </style><linearGradient
       inkscape:collect="always"
       xlink:href="#linearGradient3"
       id="linearGradient14"
       x1="188.59"
       y1="-1.5107329"
       x2="-32.25663"
       y2="219.33589"
       gradientUnits="userSpaceOnUse"
       gradientTransform="matrix(0.4559928,0,0,0.4559928,69.439175,98.330044)" /></defs><g
     inkscape:label="Calque 1"
     inkscape:groupmode="layer"
     id="layer1"
     transform="translate(-52.165961,-95.583334)"><rect
       style="fill:url(#linearGradient2);fill-opacity:1;stroke:none;stroke-width:9.20224;stroke-linecap:round;stroke-linejoin:round;stroke-dasharray:none;stroke-opacity:1;paint-order:stroke markers fill"
       id="rect5"
       width="105.83333"
       height="105.83333"
       x="52.165962"
       y="95.583336"
       ry="14.360835" /><path
       id="rect11"
       style="fill:url(#linearGradient14);fill-opacity:1;stroke:none;stroke-width:1.36798;stroke-linecap:round;stroke-linejoin:round;stroke-dasharray:none;stroke-opacity:1;paint-order:markers fill stroke"
       d="m 75.198725,112.57121 c -2.8344,0 -5.1161,2.28167 -5.1161,5.1161 v 2.4441 0.92483 0.0851 61.45167 c 1e-4,0.96644 0.78374,1.75009 1.75018,1.75018 l 66.499655,0.0856 c 0.96644,-9e-5 1.75007,-0.78313 1.75017,-1.74957 v -61.53667 -0.001 -1.00984 -2.4441 c 0,-2.83443 -2.28232,-5.11609 -5.1167,-5.11609 z m 52.493975,2.72746 c 0.85988,4.3e-4 1.55683,0.69738 1.55726,1.55725 2.4e-4,0.86034 -0.69692,1.55804 -1.55726,1.55847 -0.86081,2.5e-4 -1.55871,-0.69765 -1.55846,-1.55847 4.3e-4,-0.86034 0.69812,-1.5575 1.55846,-1.55725 z m 4.35164,0 c 0.8601,9e-5 1.55743,0.69715 1.55786,1.55725 2.4e-4,0.86059 -0.69728,1.55838 -1.55786,1.55847 -0.86057,-1e-4 -1.5581,-0.69789 -1.55785,-1.55847 4.3e-4,-0.8601 0.69775,-1.55715 1.55785,-1.55725 z m 4.35225,0 c 0.8601,9e-5 1.55743,0.69715 1.55786,1.55725 2.4e-4,0.86059 -0.69728,1.55838 -1.55786,1.55847 -0.86082,2.5e-4 -1.55872,-0.69765 -1.55847,-1.55847 4.3e-4,-0.86034 0.69813,-1.5575 1.55847,-1.55725 z m -62.814205,7.50774 63.000495,0.0856 v 58.0369 l -63.000495,-0.0856 z m 10.48601,18.27713 c -4.211,0 -7.60119,3.3902 -7.60119,7.6012 v 8.16188 h 35.608915 c 4.211,0 7.6012,-3.38961 7.6012,-7.6006 v -0.56128 c 0,-4.211 -3.3902,-7.6012 -7.6012,-7.6012 z m 24.547155,20.35045 c -4.21102,0 -7.6012,3.39017 -7.6012,7.6012 v 0.56069 c 0,4.21099 3.39018,7.6006 7.6012,7.6006 h 25.08251 v -8.16129 c 0,-4.21103 -3.39019,-7.6012 -7.6012,-7.6012 z" /></g></svg>
