<?xml version="1.0" encoding="UTF-8" standalone="no"?>
<!-- Created with Inkscape (http://www.inkscape.org/) -->

<svg
   width="105.83333mm"
   height="105.83333mm"
   viewBox="0 0 105.83333 105.83333"
   version="1.1"
   id="svg1"
   xml:space="preserve"
   inkscape:version="1.3.2 (091e20e, 2023-11-25)"
   sodipodi:docname="icon-any.svg"
   inkscape:export-filename="icon-any-144x144.png"
   inkscape:export-xdpi="34.560001"
   inkscape:export-ydpi="34.560001"
   xmlns:inkscape="http://www.inkscape.org/namespaces/inkscape"
   xmlns:sodipodi="http://sodipodi.sourceforge.net/DTD/sodipodi-0.dtd"
   xmlns:xlink="http://www.w3.org/1999/xlink"
   xmlns="http://www.w3.org/2000/svg"
   xmlns:svg="http://www.w3.org/2000/svg"><sodipodi:namedview
     id="namedview1"
     pagecolor="#ffffff"
     bordercolor="#000000"
     borderopacity="0.25"
     inkscape:showpageshadow="2"
     inkscape:pageopacity="0.0"
     inkscape:pagecheckerboard="0"
     inkscape:deskcolor="#d1d1d1"
     inkscape:document-units="mm"
     inkscape:zoom="0.6525929"
     inkscape:cx="442.08265"
     inkscape:cy="214.52884"
     inkscape:window-width="1440"
     inkscape:window-height="847"
     inkscape:window-x="0"
     inkscape:window-y="25"
     inkscape:window-maximized="1"
     inkscape:current-layer="layer1" /><defs
     id="defs1"><linearGradient
       id="linearGradient3"
       inkscape:collect="always"><stop
         style="stop-color:#ffffff;stop-opacity:1;"
         offset="0"
         id="stop3" /><stop
         style="stop-color:#ffffff;stop-opacity:0;"
         offset="1"
         id="stop4" /></linearGradient><linearGradient
       id="linearGradient1"
       inkscape:collect="always"><stop
         style="stop-color:#6febf1;stop-opacity:1;"
         offset="0"
         id="stop1" /><stop
         style="stop-color:#1274b5;stop-opacity:1;"
         offset="1"
         id="stop2" /></linearGradient><style
       id="style1">
      .cls-1 {
        stroke-width: 0px;
      }
    </style><linearGradient
       inkscape:collect="always"
       xlink:href="#linearGradient1"
       id="linearGradient2"
       x1="400.00003"
       y1="7.5590551e-06"
       x2="0"
       y2="400"
       gradientUnits="userSpaceOnUse"
       gradientTransform="matrix(0.26458333,0,0,0.26458333,52.165961,95.583334)" /><style
       id="style1-4">
      .cls-1 {
        stroke-width: 0px;
      }
    </style><linearGradient
       inkscape:collect="always"
       xlink:href="#linearGradient3"
       id="linearGradient14-3"
       x1="188.59"
       y1="-1.5107329"
       x2="-32.25663"
       y2="219.33589"
       gradientUnits="userSpaceOnUse"
       gradientTransform="matrix(0.45599637,0,0,0.45599637,69.438892,98.902167)" /></defs><g
     inkscape:label="Calque 1"
     inkscape:groupmode="layer"
     id="layer1"
     transform="translate(-52.165961,-95.583334)"><rect
       style="fill:url(#linearGradient2);fill-opacity:1;stroke:none;stroke-width:9.20224;stroke-linecap:round;stroke-linejoin:round;stroke-dasharray:none;stroke-opacity:1;paint-order:stroke markers fill"
       id="rect5"
       width="105.83333"
       height="105.83333"
       x="52.165962"
       y="95.583336"
       ry="14.360835" /><path
       id="rect11-9"
       style="fill:url(#linearGradient14-3);fill-opacity:1;stroke:none;stroke-width:1.36799;stroke-linecap:round;stroke-linejoin:round;stroke-dasharray:none;stroke-opacity:1;paint-order:markers fill stroke"
       d="m 75.198531,113.14353 c -2.834411,0 -5.115904,2.28146 -5.115904,5.1159 v 2.44437 1.00952 h 0.01186 c -0.0026,0.0388 -0.01186,0.0755 -0.01186,0.11452 v 59.52527 c 0,1.37477 1.128594,2.50336 2.503378,2.50336 h 64.993235 c 1.3748,0 2.50338,-1.12859 2.50338,-2.50336 v -59.52527 c 0,-0.0391 -0.0103,-0.0758 -0.0117,-0.11452 h 0.0117 v -1.00952 -2.44437 c 0,-2.83444 -2.282,-5.1159 -5.11639,-5.1159 z m 52.494089,2.72711 a 1.5580426,1.5580426 0 0 1 1.5578,1.55777 1.5580426,1.5580426 0 0 1 -1.5578,1.55829 1.5580426,1.5580426 0 0 1 -1.55827,-1.55829 1.5580426,1.5580426 0 0 1 1.55827,-1.55777 z m 4.35178,0 a 1.5580426,1.5580426 0 0 1 1.55826,1.55777 1.5580426,1.5580426 0 0 1 -1.55826,1.55829 1.5580426,1.5580426 0 0 1 -1.5578,-1.55829 1.5580426,1.5580426 0 0 1 1.5578,-1.55777 z m 4.35225,0 a 1.5580426,1.5580426 0 0 1 1.55779,1.55777 1.5580426,1.5580426 0 0 1 -1.55779,1.55829 1.5580426,1.5580426 0 0 1 -1.55826,-1.55829 1.5580426,1.5580426 0 0 1 1.55826,-1.55777 z m -64.864416,5.84268 h 0.570401 65.959985 0.5704 c 0.004,0.0396 0.0221,0.0735 0.0221,0.11452 v 59.52527 c 0,0.60872 -0.46716,1.07638 -1.0759,1.07638 H 72.586005 c -0.608743,0 -1.075902,-0.46766 -1.075902,-1.07638 v -59.52527 c 0,-0.0411 0.01793,-0.0749 0.02208,-0.11452 z m 12.536037,19.94289 c -4.211057,0 -7.601089,3.39005 -7.601089,7.60107 v 8.16214 h 35.609238 c 4.21105,0 7.60108,-3.39005 7.60108,-7.60108 v -0.56106 c 0,-4.21102 -3.39003,-7.60107 -7.60108,-7.60107 z m 24.547399,20.35052 c -4.21105,0 -7.60109,3.39002 -7.60109,7.60108 v 0.56055 c 0,4.21106 3.39004,7.60109 7.60109,7.60109 h 25.0824 v -8.16164 c 0,-4.21106 -3.39004,-7.60108 -7.60109,-7.60108 z" /></g></svg>
