<?xml version="1.0" encoding="UTF-8" standalone="no"?>
<!-- Created with Inkscape (http://www.inkscape.org/) -->

<svg
   width="399.99997"
   height="399.99997"
   viewBox="0 0 105.83333 105.83333"
   version="1.1"
   id="svg1"
   xml:space="preserve"
   inkscape:version="1.3.2 (091e20e, 2023-11-25)"
   sodipodi:docname="icon.svg"
   inkscape:export-filename="icon-96x96.png"
   inkscape:export-xdpi="23.040001"
   inkscape:export-ydpi="23.040001"
   xmlns:inkscape="http://www.inkscape.org/namespaces/inkscape"
   xmlns:sodipodi="http://sodipodi.sourceforge.net/DTD/sodipodi-0.dtd"
   xmlns:xlink="http://www.w3.org/1999/xlink"
   xmlns="http://www.w3.org/2000/svg"
   xmlns:svg="http://www.w3.org/2000/svg"><sodipodi:namedview
   id="namedview1"
   pagecolor="#ffffff"
   bordercolor="#000000"
   borderopacity="0.25"
   inkscape:showpageshadow="2"
   inkscape:pageopacity="0.0"
   inkscape:pagecheckerboard="0"
   inkscape:deskcolor="#d1d1d1"
   inkscape:document-units="mm"
   inkscape:zoom="0.89649778"
   inkscape:cx="173.45274"
   inkscape:cy="316.78829"
   inkscape:window-width="1920"
   inkscape:window-height="1027"
   inkscape:window-x="1440"
   inkscape:window-y="25"
   inkscape:window-maximized="1"
   inkscape:current-layer="layer1" />
	<namedview
   id="namedview1"
   pagecolor="#ffffff"
   bordercolor="#000000"
   borderopacity="0.25"
   inkscape:showpageshadow="2"
   inkscape:pageopacity="0.0"
   inkscape:pagecheckerboard="0"
   inkscape:deskcolor="#d1d1d1"
   inkscape:document-units="mm"
   inkscape:zoom="0.9209631"
   inkscape:cx="200.87667"
   inkscape:cy="213.90651"
   inkscape:window-width="1440"
   inkscape:window-height="847"
   inkscape:window-x="0"
   inkscape:window-y="25"
   inkscape:window-maximized="1"
   inkscape:current-layer="layer1"
   showguides="true" />
	<defs
   id="defs1">
		<path-effect
   effect="copy_rotate"
   starting_point="0,0"
   origin="105.57,151.33"
   id="path-effect8"
   is_visible="true"
   lpeversion="1.2"
   lpesatellites=""
   method="normal"
   num_copies="7"
   starting_angle="0"
   rotation_angle="51.428571"
   gap="0"
   copies_to_360="true"
   mirror_copies="false"
   split_items="false"
   link_styles="false" />
		<linearGradient
   id="linearGradient3"
   inkscape:collect="always">
			<stop
   style="stop-color:#ffffff;stop-opacity:1;"
   offset="0"
   id="stop3" />
			<stop
   style="stop-color:#ffffff;stop-opacity:0;"
   offset="1"
   id="stop4" />
		</linearGradient>
		<linearGradient
   id="linearGradient1"
   inkscape:collect="always">
			<stop
   style="stop-color:#6febf1;stop-opacity:1;"
   offset="0"
   id="stop1" />
			<stop
   style="stop-color:#1274b5;stop-opacity:1;"
   offset="1"
   id="stop2" />
		</linearGradient>
		<style
   id="style1">
			.cls-1 {
			stroke-width: 0px;
			}
		</style>
		<linearGradient
   inkscape:collect="always"
   xlink:href="#linearGradient1"
   id="linearGradient2"
   x1="400"
   y1="0"
   x2="0"
   y2="400"
   gradientUnits="userSpaceOnUse"
   gradientTransform="matrix(0.26458333,0,0,0.26458333,52.165961,95.583334)" />
		<linearGradient
   inkscape:collect="always"
   xlink:href="#linearGradient3"
   id="linearGradient14"
   x1="188.59"
   y1="-1.5107329"
   x2="-32.25663"
   y2="219.33589"
   gradientUnits="userSpaceOnUse"
   gradientTransform="matrix(0.33092342,0,0,0.33092342,79.215436,112.09062)" />
	</defs>
	<g
   inkscape:label="Calque 1"
   inkscape:groupmode="layer"
   id="layer1"
   transform="translate(-52.165961,-95.583334)">
		<rect
   style="fill:url(#linearGradient2);fill-opacity:1;stroke:none;stroke-width:9.20224;stroke-linecap:round;stroke-linejoin:round;stroke-dasharray:none;stroke-opacity:1;paint-order:stroke markers fill"
   id="rect5"
   width="105.83333"
   height="105.83333"
   x="52.165962"
   y="95.583336"
   ry="0" />
		<path
   id="rect11"
   style="fill:url(#linearGradient14);fill-opacity:1;stroke:none;stroke-width:0.992768;stroke-linecap:round;stroke-linejoin:round;stroke-dasharray:none;stroke-opacity:1;paint-order:markers fill stroke"
   d="m 83.39526,122.42573 c -2.056981,0 -3.712859,1.65586 -3.712859,3.71286 v 1.77373 0.67117 0.0617 44.59674 c 7e-5,0.70137 0.568769,1.27008 1.270142,1.27014 l 48.260167,0.0622 c 0.70138,-7e-5 1.27007,-0.56833 1.27014,-1.2697 v -44.65845 -8.4e-4 -0.73286 -1.77373 c 0,-2.057 -1.65633,-3.71286 -3.7133,-3.71286 z m 38.09596,1.97937 c 0.62403,3.1e-4 1.12982,0.5061 1.13014,1.13013 1.8e-4,0.62437 -0.50577,1.1307 -1.13014,1.13101 -0.62471,1.8e-4 -1.13119,-0.50629 -1.13101,-1.13101 3.2e-4,-0.62436 0.50664,-1.1303 1.13101,-1.13013 z m 3.15808,0 c 0.6242,7e-5 1.13026,0.50593 1.13057,1.13013 1.7e-4,0.62455 -0.50603,1.13095 -1.13057,1.13101 -0.62453,-7e-5 -1.13075,-0.50647 -1.13057,-1.13101 3.2e-4,-0.6242 0.50638,-1.13005 1.13057,-1.13013 z m 3.15851,0 c 0.6242,7e-5 1.13026,0.50593 1.13057,1.13013 1.8e-4,0.62455 -0.50602,1.13095 -1.13057,1.13101 -0.62471,1.8e-4 -1.13118,-0.50629 -1.13101,-1.13101 3.1e-4,-0.62436 0.50665,-1.1303 1.13101,-1.13013 z m -45.585561,5.44853 45.720761,0.0622 v 42.11859 l -45.720761,-0.0622 z m 7.609916,13.26409 c -3.056015,0 -5.516347,2.46034 -5.516347,5.51634 v 5.92325 h 25.842132 c 3.056,0 5.51635,-2.45991 5.51635,-5.51591 v -0.40734 c 0,-3.056 -2.46035,-5.51634 -5.51635,-5.51634 z m 17.814375,14.76874 c -3.05602,0 -5.51635,2.46031 -5.51635,5.51636 v 0.40689 c 0,3.05601 2.46033,5.51591 5.51635,5.51591 h 18.2029 v -5.9228 c 0,-3.05605 -2.46033,-5.51636 -5.51636,-5.51636 z" />
	</g>
</svg>
