<svg 
  xmlns="http://www.w3.org/2000/svg"
  viewBox="0 0 60 61.593"
  fill="none"
  stroke="currentColor"
>
  <g transform="translate(-75.082 -118.19)">
    <path 
      d="M79.468 118.19c-2.4295 0-4.3853 1.9557-4.3853 4.3853v55.634c.000083 0.82839.67177 1.5001 1.5002 1.5002l57 .0734c.82839-.00008 1.5001-.67126 1.5002-1.4996v-55.708c0-2.4295-1.9563-4.3853-4.3858-4.3853zm44.995 2.3378c.73704.00037 1.3344.59776 1.3348 1.3348.00021.73744-.59736 1.3355-1.3348 1.3358-.73785.00021-1.336-.59799-1.3358-1.3358.00037-.73744.5984-1.335 1.3358-1.3348zm3.73 0c.73724.00008 1.335.59756 1.3353 1.3348.00021.73765-.59767 1.3358-1.3353 1.3358-.73763-.00009-1.3355-.5982-1.3353-1.3358.00037-.73724.59808-1.3347 1.3353-1.3348zm3.7305 0c.73724.00008 1.335.59756 1.3353 1.3348.00021.73765-.59767 1.3358-1.3353 1.3358-.73785.00021-1.336-.59799-1.3358-1.3358.00037-.73744.5984-1.335 1.3358-1.3348zm-53.841 6.4353 54.001.0734v49.746l-54.001-.0734zm8.9881 15.666c-3.6095 0-6.5154 2.9059-6.5154 6.5154v6.996h30.522c3.6095 0 6.5154-2.9054 6.5154-6.5148v-.4811c0-3.6095-2.9059-6.5154-6.5154-6.5154zm21.041 17.443c-3.6095 0-6.5154 2.9059-6.5154 6.5154v.48059c0 3.6094 2.9059 6.5148 6.5154 6.5148h21.499v-6.9954c0-3.6095-2.9059-6.5154-6.5154-6.5154z"
      fill="currentColor"
    />
  </g>
</svg>