<?xml version="1.0" encoding="UTF-8" standalone="no"?>
<!-- Created with Inkscape (http://www.inkscape.org/) -->

<svg
   width="60.000469mm"
   height="61.592621mm"
   viewBox="0 0 60.00047 61.592622"
   version="1.1"
   id="svg1"
   xml:space="preserve"
   inkscape:version="1.3.2 (091e20e, 2023-11-25)"
   sodipodi:docname="icon-only.svg"
   inkscape:export-filename="icon-96x96.png"
   inkscape:export-xdpi="23.040001"
   inkscape:export-ydpi="23.040001"
   xmlns:inkscape="http://www.inkscape.org/namespaces/inkscape"
   xmlns:sodipodi="http://sodipodi.sourceforge.net/DTD/sodipodi-0.dtd"
   xmlns="http://www.w3.org/2000/svg"
   xmlns:svg="http://www.w3.org/2000/svg"><sodipodi:namedview
   id="namedview1"
   pagecolor="#ffffff"
   bordercolor="#000000"
   borderopacity="0.25"
   inkscape:showpageshadow="2"
   inkscape:pageopacity="0.0"
   inkscape:pagecheckerboard="0"
   inkscape:deskcolor="#d1d1d1"
   inkscape:document-units="mm"
   inkscape:zoom="1.3551916"
   inkscape:cx="77.848769"
   inkscape:cy="58.294339"
   inkscape:window-width="1920"
   inkscape:window-height="1027"
   inkscape:window-x="1440"
   inkscape:window-y="25"
   inkscape:window-maximized="1"
   inkscape:current-layer="layer1" />
	<namedview
   id="namedview1"
   pagecolor="#ffffff"
   bordercolor="#000000"
   borderopacity="0.25"
   inkscape:showpageshadow="2"
   inkscape:pageopacity="0.0"
   inkscape:pagecheckerboard="0"
   inkscape:deskcolor="#d1d1d1"
   inkscape:document-units="mm"
   inkscape:zoom="0.9209631"
   inkscape:cx="200.87667"
   inkscape:cy="213.90651"
   inkscape:window-width="1440"
   inkscape:window-height="847"
   inkscape:window-x="0"
   inkscape:window-y="25"
   inkscape:window-maximized="1"
   inkscape:current-layer="layer1"
   showguides="true" />
	<defs
   id="defs1">
		<path-effect
   effect="copy_rotate"
   starting_point="0,0"
   origin="105.57,151.33"
   id="path-effect8"
   is_visible="true"
   lpeversion="1.2"
   lpesatellites=""
   method="normal"
   num_copies="7"
   starting_angle="0"
   rotation_angle="51.428571"
   gap="0"
   copies_to_360="true"
   mirror_copies="false"
   split_items="false"
   link_styles="false" />
		
		
		<style
   id="style1">
			.cls-1 {
			stroke-width: 0px;
			}
		</style>
		
		
	</defs>
	<g
   inkscape:label="Calque 1"
   inkscape:groupmode="layer"
   id="layer1"
   transform="translate(-75.082392,-118.19436)">
		
		<path
   id="rect11"
   style="fill:#000000;fill-opacity:1;stroke:none;stroke-width:1.17256;stroke-linecap:round;stroke-linejoin:round;stroke-dasharray:none;stroke-opacity:1;paint-order:markers fill stroke"
   d="m 79.467654,118.19436 c -2.429502,0 -4.385262,1.95573 -4.385262,4.38526 v 2.09496 0.79272 0.0729 52.67327 c 8.3e-5,0.82839 0.671774,1.50009 1.500166,1.50017 l 57.000142,0.0734 c 0.82839,-8e-5 1.50007,-0.67126 1.50016,-1.49965 v -52.74613 -10e-4 -0.86558 -2.09496 c 0,-2.42953 -1.95629,-4.38526 -4.38578,-4.38526 z m 44.995186,2.33784 c 0.73704,3.7e-4 1.33443,0.59776 1.3348,1.3348 2.1e-4,0.73744 -0.59736,1.33547 -1.3348,1.33584 -0.73785,2.1e-4 -1.33605,-0.59799 -1.33584,-1.33584 3.7e-4,-0.73744 0.5984,-1.33501 1.33584,-1.3348 z m 3.73,0 c 0.73724,8e-5 1.33495,0.59756 1.33532,1.3348 2.1e-4,0.73765 -0.59767,1.33576 -1.33532,1.33584 -0.73763,-9e-5 -1.33552,-0.5982 -1.33531,-1.33584 3.7e-4,-0.73724 0.59808,-1.33471 1.33531,-1.3348 z m 3.73053,0 c 0.73724,8e-5 1.33495,0.59756 1.33532,1.3348 2.1e-4,0.73765 -0.59767,1.33576 -1.33532,1.33584 -0.73785,2.1e-4 -1.33605,-0.59799 -1.33584,-1.33584 3.7e-4,-0.73744 0.5984,-1.33501 1.33584,-1.3348 z m -53.841161,6.43526 54.000841,0.0734 v 49.74631 l -54.000841,-0.0734 z m 8.988081,15.66623 c -3.609463,0 -6.515364,2.90591 -6.515364,6.51537 v 6.99595 h 30.522164 c 3.60946,0 6.51537,-2.9054 6.51537,-6.51485 v -0.4811 c 0,-3.60946 -2.90591,-6.51537 -6.51537,-6.51537 z m 21.04058,17.44338 c -3.60948,0 -6.51537,2.90588 -6.51537,6.51537 v 0.48059 c 0,3.60945 2.90589,6.51485 6.51537,6.51485 h 21.49946 v -6.99544 c 0,-3.60949 -2.9059,-6.51537 -6.51537,-6.51537 z" />
	</g>
</svg>
