<svg
  width="32"
  height="32"
  viewBox="0 0 32 32"
  xmlns="http://www.w3.org/2000/svg"
  fill="currentColor"
>
  <path d="M16.001 4c-3.259 0-3.668.014-4.948.073-1.278.059-2.15.261-2.913.558-.789.306-1.459.716-2.126 1.384-.667.667-1.078 1.337-1.385 2.126-.297.763-.5 1.636-.558 2.913C4.014 12.23 4 12.639 4 15.898s.014 3.667.072 4.947c.059 1.278.261 2.15.558 2.913.307.789.717 1.459 1.384 2.126.667.667 1.336 1.078 2.125 1.385.764.297 1.636.499 2.913.558 1.28.058 1.689.072 4.947.072s3.667-.014 4.947-.072c1.278-.059 2.15-.261 2.914-.558.789-.307 1.458-.717 2.125-1.385.667-.667 1.078-1.336 1.385-2.125.296-.764.499-1.636.557-2.914.058-1.28.073-1.688.073-4.947s-.015-3.667-.073-4.947c-.058-1.278-.261-2.15-.557-2.914-.307-.789-.718-1.458-1.385-2.125-.667-.667-1.336-1.078-2.125-1.384-.764-.297-1.637-.5-2.915-.558C19.668 4.014 19.26 4 16.001 4zM14.925 6.163c.32 0 .676 0 1.076 0 3.204 0 3.584.011 4.849.069 1.17.054 1.805.25 2.228.414.56.218.959.477 1.379.898.42.42.68.82.898 1.38.164.423.36 1.058.413 2.228.058 1.265.07 1.645.07 4.847s-.012 3.583-.07 4.848c-.054 1.17-.25 1.805-.413 2.228-.218.56-.478.959-.898 1.379-.42.42-.819.68-1.379.898-.423.165-1.058.36-2.228.413-1.265.058-1.645.07-4.849.07-3.204 0-3.584-.012-4.849-.07-1.17-.054-1.805-.25-2.228-.414-.56-.218-.96-.477-1.38-.898s-.68-.819-.898-1.379c-.164-.423-.36-1.058-.413-2.228-.057-1.265-.07-1.645-.07-4.849s.012-3.583.07-4.848c.054-1.17.25-1.805.413-2.228.218-.56.478-.96.898-1.38s.82-.68 1.38-.898c.423-.165 1.058-.36 2.228-.414 1.107-.05 1.536-.065 3.772-.068zm7.482 1.993a1.44 1.44 0 1 0 1.44 1.44 1.44 1.44 0 0 0-1.44-1.44zM16.001 9.838c-3.403 0-6.162 2.76-6.162 6.162 0 3.403 2.759 6.161 6.162 6.161s6.162-2.758 6.162-6.161c0-3.403-2.759-6.162-6.162-6.162zm0 2.163c2.209 0 4 1.791 4 4s-1.791 4-4 4-4-1.791-4-4 1.791-4 4-4z"/>
</svg>
