<svg
  width="32"
  height="32"
  viewBox="0 0 32 32"
  fill="currentColor"
  xmlns="http://www.w3.org/2000/svg"
>
  <g transform="matrix(.048176 0 0 -.048176 28.044 16.044)">
    <path d="M0 0c0 138.07-111.93 250-250 250s-250-111.93-250-250c0-117.24 80.715-215.62 189.61-242.64v166.24h-51.552v76.396h51.552v32.919c0 85.092 38.508 124.53 122.05 124.53 15.838 0 43.167-3.105 54.347-6.211v-69.254c-5.901 0.621-16.149 0.932-28.882 0.932-40.993 0-56.832-15.528-56.832-55.9v-27.018h81.659l-14.028-76.396h-67.631v-171.77c123.79 14.951 219.71 120.35 219.71 248.17z"/>
  </g>
</svg>