<svg 
  xmlns="http://www.w3.org/2000/svg" 
  viewBox="0 0 32 32" 
  fill="currentColor"
>
  <path d="M16.001 6.2429c-5.3893 0.00193-9.7562 4.3748-9.7523 9.7621 0 1.8375 0.51801 3.6339 1.4954 5.1879l-0.93829 4.0034 4.0034-0.93829c4.5605 2.8715 10.585 1.5032 13.457-3.0573 2.8715-4.5605 1.5032-10.585-3.0573-13.457-1.5579-0.98325-3.3642-1.5032-5.2075-1.5013zm-5.573 19.122-1.6127 0.37531 0.25607 1.0966 1.1865-0.27562c0.89919 0.49065 1.859 0.86205 2.854 1.1064l0.26976-1.0927c-1.036-0.25803-2.029-0.66853-2.9458-1.2178zm-5.2544-2.4395 1.0966 0.25412 0.37531-1.6127c-0.54733-0.91874-0.95588-1.9157-1.21-2.9536l-1.0927 0.26976c0.24435 0.99498 0.61771 1.9548 1.1064 2.854zm2.6428 3.0416-2.3242 0.54342 0.54147-2.3242-1.0966-0.25607-0.54147 2.3242c-0.1427 0.60598 0.23457 1.212 0.83859 1.3527 0.16811 0.03909 0.34404 0.03909 0.5141 0l2.3223-0.53365zm6.5543-20.728c1.081-0.16224 2.1796-0.16224 3.2605 0l0.16811-1.1123c-1.1924-0.17984-2.4063-0.17984-3.5987 0zm11.914 4.5546-0.9637 0.57861c0.56493 0.93633 0.9852 1.9528 1.2471 3.0142l1.0927-0.26976c-0.2893-1.1709-0.75258-2.291-1.3762-3.3231zm-19.045-0.2463c0.64898-0.87964 1.427-1.6576 2.3066-2.3066l-0.67635-0.90701c-0.96761 0.71349-1.8238 1.5697-2.5373 2.5373zm15.216-2.3066c0.87964 0.64898 1.6576 1.427 2.3066 2.3066l0.90701-0.67635c-0.71349-0.96761-1.5697-1.8238-2.5373-2.5373zm2.3066 15.218c-0.64898 0.87964-1.427 1.6557-2.3066 2.3047l0.66853 0.90701c0.96956-0.71349 1.8277-1.5697 2.5451-2.5373zm-7.131 4.3063c-1.081 0.16224-2.1796 0.16224-3.2605 0l-0.16811 1.1142c1.1924 0.17984 2.4063 0.17984 3.5987 0zm10.028-7.8797-1.0927-0.26976c-0.26194 1.0634-0.68221 2.0799-1.2471 3.0182l0.9637 0.58056c0.62552-1.0341 1.0888-2.1581 1.3762-3.329zm-0.77409-2.8833c0 0.54538-0.04105 1.0908-0.12315 1.6303l1.1123 0.17006c0.17984-1.1924 0.17984-2.4063 0-3.5987l-1.1123 0.16811c0.0821 0.53952 0.12315 1.0849 0.12315 1.6303zm-4.6758 10.284-0.57861-0.9637c-0.93633 0.56493-1.9528 0.9852-3.0142 1.2471l0.26976 1.0927c1.1709-0.28931 2.291-0.75258 3.3231-1.3762zm-17.092-10.284c0-0.54538 0.04105-1.0908 0.1212-1.6303l-1.1123-0.16811c-0.17984 1.1924-0.17984 2.4063 0 3.5987l1.1123-0.17006c-0.080146-0.53952-0.1212-1.0849-0.1212-1.6303zm0.60011-6.2083c-0.62357 1.0341-1.0868 2.1542-1.3762 3.3251l1.0927 0.26976c0.26194-1.0634 0.68221-2.0799 1.2471-3.0182zm13.165-5.4518-0.26976 1.0927c1.0634 0.26194 2.0799 0.68221 3.0182 1.2471l0.58057-0.9637c-1.0321-0.62357-2.1561-1.0868-3.329-1.3762zm-5.7646 0 0.26976 1.0927c-1.0634 0.26194-2.0799 0.68221-3.0182 1.2471l-0.57861-0.9637c1.036-0.62357 2.1561-1.0868 3.327-1.3762z"/>
</svg>
