<svg
  width="32"
  height="32"
  viewBox="0 0 32 32"
  fill="currentColor"
  xmlns="http://www.w3.org/2000/svg"
>
  <path d="M9.0541 19.172c0 1.3949-1.1274 2.5223-2.5223 2.5223-1.3949 0-2.5223-1.1274-2.5223-2.5223 0-1.3949 1.1274-2.5223 2.5223-2.5223h2.5223zm1.2611 0c0-1.3949 1.1274-2.5223 2.5223-2.5223 1.3949 0 2.5223 1.1274 2.5223 2.5223v6.3057c0 1.3949-1.1274 2.5223-2.5223 2.5223-1.3949 0-2.5223-1.1274-2.5223-2.5223z"/>
  <path d="M12.838 9.0446c-1.3949 0-2.5223-1.1274-2.5223-2.5223s1.1274-2.5223 2.5223-2.5223c1.3949 0 2.5223 1.1274 2.5223 2.5223v2.5223zm0 1.2803c1.3949 0 2.5223 1.1274 2.5223 2.5223 0 1.3949-1.1274 2.5223-2.5223 2.5223h-6.3248c-1.3949 0-2.5223-1.1274-2.5223-2.5223 0-1.3949 1.1274-2.5223 2.5223-2.5223z"/>
  <path d="M22.946 12.847c0-1.3949 1.1274-2.5223 2.5223-2.5223 1.3949 0 2.5223 1.1274 2.5223 2.5223 0 1.3949-1.1274 2.5223-2.5223 2.5223h-2.5223zm-1.2611 0c0 1.3949-1.1274 2.5223-2.5223 2.5223-1.3949 0-2.5223-1.1274-2.5223-2.5223v-6.3248c0-1.3949 1.1274-2.5223 2.5223-2.5223 1.3949 0 2.5223 1.1274 2.5223 2.5223z"/>
  <path d="M19.162 22.955c1.3949 0 2.5223 1.1274 2.5223 2.5223 0 1.3949-1.1274 2.5223-2.5223 2.5223-1.3949 0-2.5223-1.1274-2.5223-2.5223v-2.5223zm0-1.2611c-1.3949 0-2.5223-1.1274-2.5223-2.5223 0-1.3949 1.1274-2.5223 2.5223-2.5223h6.3248c1.3949 0 2.5223 1.1274 2.5223 2.5223 0 1.3949-1.1274 2.5223-2.5223 2.5223z"/>
</svg>
