<svg width="24mm" height="24mm" version="1.1" viewBox="0 0 24 24" xmlns="http://www.w3.org/2000/svg">
	<g transform="matrix(.77012 0 0 .77012 135.27 2.1925)" style="stroke-width:2">
		<path d="m-160.09 12.369a16.08 16.08 0 0 0-6.4503 1.3674l6.4787 8.2093 6.4704-8.1995a16.08 16.08 0 0 0-6.4988-1.3772z" style="paint-order:markers stroke fill"/>
		<path d="m-160.08 3.524c-4.1746 0.01985-8.2719 1.1283-11.887 3.2158a24 17.559 0 0 0-0.0863 0.03462l11.973 15.172 11.997-15.203a24 17.559 0 0 0-9e-3 -0.0036c-3.6448-2.1046-7.7791-3.2136-11.988-3.2158z" style="fill:none;paint-order:markers stroke fill;stroke-linecap:round;stroke-linejoin:round;stroke-width:2;stroke:#000"/>
	</g>
</svg>
