<svg width="37.786" height="32.51" version="1.1" viewBox="0 -256 37.786 32.51" xmlns="http://www.w3.org/2000/svg">
				<g transform="translate(-306.41 -7.962)">
								<circle cx="338.08" cy="-238.27" r="1.2696"/>
								<path d="m319.89-246.79h10.814l2.9034 3.8288h-16.621zm13.805 16.988a8.3982 8.3982 0 0 1-8.3982 8.3982 8.3982 8.3982 0 0 1-8.3982-8.3982 8.3982 8.3982 0 0 1 8.3982-8.3982 8.3982 8.3982 0 0 1 8.3982 8.3982zm-21.879-13.022h26.962c2.3055 0 4.1616 1.8561 4.1616 4.1616v17.721c0 2.3055-1.8561 4.1616-4.1616 4.1616h-26.962c-2.3055 0-4.1616-1.8561-4.1616-4.1616v-17.721c0-2.3055 1.8561-4.1616 4.1616-4.1616z" style="fill:none;stroke-linecap:round;stroke-linejoin:round;stroke-width:2.5;stroke:#000"/>
				</g>
</svg>
